HIERARCHY
ROOT hip
{
  OFFSET 0.0 0.0 0.0
  CHANNELS 6 Xposition Yposition Zposition Zrotation Yrotation Xrotation
  JOINT abdomen
  {
    OFFSET 0.0 20.6881 -0.73152
    CHANNELS 3 Zrotation Xrotation Yrotation
    JOINT chest
    {
      OFFSET 0.0 11.7043 -0.48768
      CHANNELS 3 Zrotation Xrotation Yrotation
      JOINT neck
      {
        OFFSET 0.0 22.1894 -2.19456
        CHANNELS 3 Zrotation Xrotation Yrotation
        JOINT head
        {
          OFFSET -0.24384 7.07133 1.2192
          CHANNELS 3 Zrotation Xrotation Yrotation
          JOINT leftEye
          {
            OFFSET 4.14528 8.04674 8.04672
            CHANNELS 3 Zrotation Xrotation Yrotation
            End Site
            {
              OFFSET 1.0 0.0 0.0
            }
          }
          JOINT rightEye
          {
            OFFSET -3.6576 8.04674 8.04672
            CHANNELS 3 Zrotation Xrotation Yrotation
            End Site
            {
              OFFSET 1.0 0.0 0.0
            }
          }
        }
      }
      JOINT rCollar
      {
        OFFSET -2.68224 19.2634 -4.8768
        CHANNELS 3 Zrotation Xrotation Yrotation
        JOINT rShldr
        {
          OFFSET -8.77824 -1.95073 1.46304
          CHANNELS 3 Zrotation Xrotation Yrotation
          JOINT rForeArm
          {
            OFFSET -28.1742 -1.7115 0.48768
            CHANNELS 3 Zrotation Xrotation Yrotation
            JOINT rHand
            {
              OFFSET -22.5879 0.773209 7.07136
              CHANNELS 3 Zrotation Xrotation Yrotation
              JOINT rThumb1
              {
                OFFSET -1.2192 -0.487915 3.41376
                CHANNELS 3 Zrotation Xrotation Yrotation
                JOINT rThumb2
                {
                  OFFSET -3.37035 -0.52449 3.41376
                  CHANNELS 3 Zrotation Xrotation Yrotation
                  End Site
                  {
                    OFFSET -1.78271 -1.18214 1.43049
                  }
                }
              }
              JOINT rIndex1
              {
                OFFSET -7.75947 0.938293 5.60832
                CHANNELS 3 Zrotation Xrotation Yrotation
                JOINT rIndex2
                {
                  OFFSET -2.54057 -0.884171 1.56538
                  CHANNELS 3 Zrotation Xrotation Yrotation
                  End Site
                  {
                    OFFSET -1.62519 -0.234802 1.16502
                  }
                }
              }
              JOINT rMid1
              {
                OFFSET -8.24714 1.18213 3.41376
                CHANNELS 3 Zrotation Xrotation Yrotation
                JOINT rMid2
                {
                  OFFSET -3.10165 -0.590103 1.0647
                  CHANNELS 3 Zrotation Xrotation Yrotation
                  End Site
                  {
                    OFFSET -2.48547 -0.328903 0.83742
                  }
                }
              }
              JOINT rRing1
              {
                OFFSET -8.82822 0.546677 1.51678
                CHANNELS 3 Zrotation Xrotation Yrotation
                JOINT rRing2
                {
                  OFFSET -2.60934 -0.819778 -0.0198488
                  CHANNELS 3 Zrotation Xrotation Yrotation
                  End Site
                  {
                    OFFSET -2.33842 -0.294052 0.168128
                  }
                }
              }
              JOINT rPinky1
              {
                OFFSET -8.27202 -0.0477905 -0.4584
                CHANNELS 3 Zrotation Xrotation Yrotation
                JOINT rPinky2
                {
                  OFFSET -1.82734 -0.647385 -0.700984
                  CHANNELS 3 Zrotation Xrotation Yrotation
                  End Site
                  {
                    OFFSET -1.69225 -0.51767 -0.607171
                  }
                }
              }
            }
          }
        }
      }
      JOINT lCollar
      {
        OFFSET 2.68224 19.2634 -4.8768
        CHANNELS 3 Zrotation Xrotation Yrotation
        JOINT lShldr
        {
          OFFSET 8.77824 -1.95073 1.46304
          CHANNELS 3 Zrotation Xrotation Yrotation
          JOINT lForeArm
          {
            OFFSET 28.1742 -1.7115 0.48768
            CHANNELS 3 Zrotation Xrotation Yrotation
            JOINT lHand
            {
              OFFSET 22.5879 0.773209 7.07136
              CHANNELS 3 Zrotation Xrotation Yrotation
              JOINT lThumb1
              {
                OFFSET 1.2192 -0.487915 3.41376
                CHANNELS 3 Zrotation Xrotation Yrotation
                JOINT lThumb2
                {
                  OFFSET 3.37035 -0.52449 3.41376
                  CHANNELS 3 Zrotation Xrotation Yrotation
                  End Site
                  {
                    OFFSET 1.78271 -1.18214 1.43049
                  }
                }
              }
              JOINT lIndex1
              {
                OFFSET 7.75947 0.938293 5.60832
                CHANNELS 3 Zrotation Xrotation Yrotation
                JOINT lIndex2
                {
                  OFFSET 2.54057 -0.884171 1.56538
                  CHANNELS 3 Zrotation Xrotation Yrotation
                  End Site
                  {
                    OFFSET 1.62519 -0.234802 1.16502
                  }
                }
              }
              JOINT lMid1
              {
                OFFSET 8.24714 1.18213 3.41376
                CHANNELS 3 Zrotation Xrotation Yrotation
                JOINT lMid2
                {
                  OFFSET 3.10165 -0.590103 1.0647
                  CHANNELS 3 Zrotation Xrotation Yrotation
                  End Site
                  {
                    OFFSET 2.48547 -0.328903 0.83742
                  }
                }
              }
              JOINT lRing1
              {
                OFFSET 8.82822 0.546677 1.51678
                CHANNELS 3 Zrotation Xrotation Yrotation
                JOINT lRing2
                {
                  OFFSET 2.60934 -0.819778 -0.0198488
                  CHANNELS 3 Zrotation Xrotation Yrotation
                  End Site
                  {
                    OFFSET 2.33842 -0.294052 0.168128
                  }
                }
              }
              JOINT lPinky1
              {
                OFFSET 8.27202 -0.0477905 -0.4584
                CHANNELS 3 Zrotation Xrotation Yrotation
                JOINT lPinky2
                {
                  OFFSET 1.82734 -0.647385 -0.700984
                  CHANNELS 3 Zrotation Xrotation Yrotation
                  End Site
                  {
                    OFFSET 1.69225 -0.51767 -0.607171
                  }
                }
              }
            }
          }
        }
      }
    }
  }
  JOINT rButtock
  {
    OFFSET -8.77824 4.35084 1.2192
    CHANNELS 3 Zrotation Xrotation Yrotation
    JOINT rThigh
    {
      OFFSET 0.0 -1.70687 -2.19456
      CHANNELS 3 Zrotation Xrotation Yrotation
      JOINT rShin
      {
        OFFSET 0.0 -36.8199 0.73152
        CHANNELS 3 Zrotation Xrotation Yrotation
        JOINT rFoot
        {
          OFFSET 0.73152 -45.1104 -5.12064
          CHANNELS 3 Zrotation Xrotation Yrotation
          End Site
          {
            OFFSET -1.1221 -3.69964 12.103
          }
        }
      }
    }
  }
  JOINT lButtock
  {
    OFFSET 8.77824 4.35084 1.2192
    CHANNELS 3 Zrotation Xrotation Yrotation
    JOINT lThigh
    {
      OFFSET 0.0 -1.70687 -2.19456
      CHANNELS 3 Zrotation Xrotation Yrotation
      JOINT lShin
      {
        OFFSET 0.0 -36.8199 0.73152
        CHANNELS 3 Zrotation Xrotation Yrotation
        JOINT lFoot
        {
          OFFSET -0.73152 -45.1104 -5.12064
          CHANNELS 3 Zrotation Xrotation Yrotation
          End Site
          {
            OFFSET 1.1221 -3.69964 12.103
          }
        }
      }
    }
  }
}
MOTION
Frames: 7
Frame Time: 0.00833333
0.0 78.8579 0.0 -3.924 6.0427 11.8554 5.08932 10.94 6.08066 1.2951 -5.7245 1.82062 4.2879 -6.43074 -2.04016 -12.1075 -7.62012 -6.57969 -0.0 0.0 0.0 -0.0 0.0 0.0 -1.39128e-13 2.04547e-13 1.36366e-13 70.7336 16.9571 13.5991 -15.043 -7.82891 27.6743 -0.208029 -12.8873 -1.84265 5.21891e-11 2.03312e-09 3.90161e-10 7.92299e-11 3.5319e-09 6.78947e-10 5.22092e-11 2.03312e-09 3.9015e-10 7.73091 5.47488 0.417314 5.22011e-11 2.03311e-09 3.90157e-10 2.90554 0.965183 0.102902 5.22e-11 2.03312e-09 3.90162e-10 10.2786 0.731801 0.0259123 5.21806e-11 2.03312e-09 3.90162e-10 2.22167 -0.733487 -0.20892 -1.3913e-13 2.04552e-13 1.36112e-13 -81.5928 9.26695 13.8571 9.34919 -3.7573 -16.5836 0.00234681 1.89025 -0.265826 1.5368e-09 -1.96091e-09 3.20208e-09 2.6711e-09 -3.40288e-09 5.53172e-09 1.5368e-09 -1.96091e-09 3.2021e-09 -7.73091 5.47488 -0.417314 1.5368e-09 -1.96091e-09 3.20208e-09 -2.90554 0.965183 -0.102902 1.5368e-09 -1.96091e-09 3.20208e-09 -10.2786 0.731801 -0.0259123 1.5368e-09 -1.9609e-09 3.20207e-09 -2.22167 -0.733487 0.20892 -2.03217e-16 0.0 -3.88251e-19 8.15568 7.43657 -3.48625 -0.0925195 19.5397 0.360412 -2.31656 0.371944 -25.0647 2.03217e-16 0.0 3.88251e-19 2.14988 -55.4485 -2.25642 0.194068 26.4548 0.0881442 3.03512 -6.82823 11.7269
0.08382999999999896 78.6908 1.2280000000000086 -3.8752 5.8546 11.956 4.91533 10.7515 6.42784 1.27208 -5.79162 1.90843 3.98182 -6.35258 -2.20876 -11.5438 -7.50595 -6.73721 -0.0 0.0 0.0 -0.0 0.0 0.0 -1.29141e-13 3.09628e-13 1.27481e-13 70.8284 17.0361 13.3562 -15.2968 -8.05088 28.1996 -0.219312 -13.2254 -1.89275 -6.30089e-10 3.90344e-09 -2.05587e-10 -1.09942e-09 6.76702e-09 -3.55228e-10 -6.30072e-10 3.90344e-09 -2.05597e-10 7.73091 5.47488 0.417314 -6.3008e-10 3.90344e-09 -2.05591e-10 2.90554 0.965183 0.102902 -6.30077e-10 3.90344e-09 -2.05585e-10 10.2786 0.731801 0.0259123 -6.30098e-10 3.90344e-09 -2.05585e-10 2.22167 -0.733487 -0.20892 -1.29133e-13 3.09636e-13 1.2723e-13 -81.0979 7.95265 14.2457 9.02837 -3.57315 -15.9893 0.0123158 3.27307 -0.460635 1.44438e-09 -1.28304e-09 5.37777e-09 2.52154e-09 -2.2377e-09 9.29224e-09 1.44438e-09 -1.28304e-09 5.37779e-09 -7.73091 5.47488 -0.417314 1.44438e-09 -1.28304e-09 5.37777e-09 -2.90554 0.965183 -0.102902 1.44437e-09 -1.28304e-09 5.37777e-09 -10.2786 0.731801 -0.0259123 1.44438e-09 -1.28304e-09 5.37776e-09 -2.22167 -0.733487 0.20892 -2.03217e-16 0.0 -3.88251e-19 8.01519 8.40245 -3.55984 -0.082688 18.883 0.370397 -1.83586 1.21672 -24.3865 2.03217e-16 0.0 3.88251e-19 2.07335 -55.6268 -2.59732 0.208573 27.9343 0.0197592 3.23991 -7.66302 11.8394
0.19004999999999939 78.5418 2.4939999999999998 -3.7697 5.6322 12.0656 4.63954 10.5592 6.76843 1.25819 -5.85584 1.99342 3.74581 -6.31473 -2.34886 -11.0269 -7.33108 -6.86753 -0.0 0.0 0.0 -0.0 0.0 0.0 -1.1331e-13 3.81662e-13 1.06648e-13 70.9661 17.1282 13.0457 -15.5311 -8.25875 28.6889 -0.229108 -13.5067 -1.93457 -1.09152e-09 4.95718e-09 -5.89166e-10 -1.89591e-09 8.58849e-09 -1.02145e-09 -1.09151e-09 4.95718e-09 -5.89175e-10 7.73091 5.47488 0.417314 -1.09151e-09 4.95718e-09 -5.89169e-10 2.90554 0.965183 0.102902 -1.09151e-09 4.95717e-09 -5.89163e-10 10.2786 0.731801 0.0259123 -1.09153e-09 4.95718e-09 -5.89163e-10 2.22167 -0.733487 -0.20892 -1.13312e-13 3.81672e-13 1.06399e-13 -80.5659 6.55891 14.631 8.73886 -3.4095 -15.4569 0.0263943 4.63267 -0.652516 1.22066e-09 -6.03771e-10 6.53959e-09 2.14091e-09 -1.06748e-09 1.13008e-08 1.22065e-09 -6.03773e-10 6.5396e-09 -7.73091 5.47488 -0.417314 1.22066e-09 -6.03773e-10 6.53958e-09 -2.90554 0.965183 -0.102902 1.22065e-09 -6.03773e-10 6.53958e-09 -10.2786 0.731801 -0.0259123 1.22066e-09 -6.0377e-10 6.53958e-09 -2.22167 -0.733487 0.20892 -2.03217e-16 0.0 -3.88251e-19 7.78447 9.30331 -3.62317 -0.0736307 18.3074 0.379175 -1.29773 2.25584 -23.699 2.03217e-16 0.0 3.88251e-19 1.94337 -55.7605 -2.79554 0.223434 29.4296 -0.0489409 3.43784 -8.45827 11.9348
0.32337999999999845 78.4289 3.8000000000000114 -3.5775 5.3845 12.1744 4.20599 10.3585 7.12031 1.26084 -5.92367 2.07984 3.60824 -6.34007 -2.45146 -10.5748 -7.05317 -6.96318 -0.0 0.0 0.0 -0.0 0.0 0.0 -8.75371e-14 4.22488e-13 7.03686e-14 71.1688 17.2169 12.6451 -15.7583 -8.46472 29.1635 -0.237039 -13.7291 -1.96772 -1.32089e-09 4.93591e-09 -6.2261e-10 -2.29109e-09 8.54933e-09 -1.08119e-09 -1.32087e-09 4.93591e-09 -6.22621e-10 7.73091 5.47488 0.417314 -1.32088e-09 4.93591e-09 -6.22612e-10 2.90554 0.965183 0.102902 -1.32088e-09 4.93591e-09 -6.22608e-10 10.2786 0.731801 0.0259123 -1.32089e-09 4.93591e-09 -6.22606e-10 2.22167 -0.733487 -0.20892 -8.75856e-14 4.22496e-13 7.0119e-14 -79.9782 5.05777 15.0226 8.48816 -3.2711 -14.9968 0.0432979 6.00001 -0.846094 7.06223e-10 1.27394e-10 6.27177e-09 1.25267e-09 1.94991e-10 1.08396e-08 7.06219e-10 1.27394e-10 6.27178e-09 -7.73091 5.47488 -0.417314 7.06225e-10 1.27392e-10 6.27176e-09 -2.90554 0.965183 -0.102902 7.06221e-10 1.27392e-10 6.27176e-09 -10.2786 0.731801 -0.0259123 7.06226e-10 1.27394e-10 6.27176e-09 -2.22167 -0.733487 0.20892 -2.03217e-16 0.0 -3.88251e-19 7.42003 10.1834 -3.67516 -0.06445 17.7578 0.389161 -0.721757 3.45961 -22.9857 2.03217e-16 0.0 3.88251e-19 1.73847 -55.8739 -2.77973 0.237765 30.999 -0.121593 3.6389 -9.2391 12.0253
0.47964999999999947 78.3641 5.1440000000000055 -3.306 5.1154 12.275 3.66515 10.1395 7.4902 1.26851 -6.00298 2.16988 3.55319 -6.40518 -2.52603 -10.1853 -6.6794 -7.0341 -0.0 0.0 0.0 -0.0 0.0 0.0 -5.17247e-14 4.43486e-13 2.32858e-14 71.4391 17.303 12.1383 -15.9808 -8.6704 29.6294 -0.243229 -13.9036 -1.99373 -1.4552e-09 4.28513e-09 -4.42223e-10 -2.52176e-09 7.42045e-09 -7.70924e-10 -1.45518e-09 4.28513e-09 -4.42235e-10 7.73091 5.47488 0.417314 -1.45519e-09 4.28513e-09 -4.42222e-10 2.90554 0.965183 0.102902 -1.45519e-09 4.28513e-09 -4.42221e-10 10.2786 0.731801 0.0259123 -1.4552e-09 4.28514e-09 -4.42218e-10 2.22167 -0.733487 -0.20892 -5.18455e-14 4.43491e-13 2.30342e-14 -79.3301 3.45644 15.4276 8.26323 -3.15035 -14.5834 0.0655653 7.40661 -1.04642 -4.55709e-11 9.37885e-10 5.11651e-09 -4.89612e-11 1.59603e-09 8.84535e-09 -4.55799e-11 9.37888e-10 5.11652e-09 -7.73091 5.47488 -0.417314 -4.55692e-11 9.37885e-10 5.11651e-09 -2.90554 0.965183 -0.102902 -4.55737e-11 9.37884e-10 5.11651e-09 -10.2786 0.731801 -0.0259123 -4.55659e-11 9.37885e-10 5.1165e-09 -2.22167 -0.733487 0.20892 -2.03217e-16 0.0 -3.88251e-19 6.95769 11.0666 -3.71462 -0.0546487 17.2041 0.400594 -0.121327 4.8113 -22.2518 2.03217e-16 0.0 3.88251e-19 1.48211 -55.9658 -2.62752 0.254955 32.6938 -0.201811 3.84394 -10.0252 12.1048
0.6534199999999988 78.3519 6.529000000000011 -2.9796 4.8507 12.3522 3.10538 9.92016 7.83285 1.27315 -6.07326 2.25231 3.52774 -6.47618 -2.58584 -9.81958 -6.29981 -7.08998 -0.0 0.0 0.0 -0.0 0.0 0.0 -1.51685e-14 4.31982e-13 -3.02094e-14 71.7272 17.4221 11.5873 -16.1718 -8.84899 30.0332 -0.247577 -14.0266 -2.01208 -1.41693e-09 3.25219e-09 -2.56198e-10 -2.4534e-09 5.62936e-09 -4.49953e-10 -1.41692e-09 3.25219e-09 -2.56211e-10 7.73091 5.47488 0.417314 -1.41693e-09 3.25219e-09 -2.56195e-10 2.90554 0.965183 0.102902 -1.41693e-09 3.25219e-09 -2.56198e-10 10.2786 0.731801 0.0259123 -1.41694e-09 3.25219e-09 -2.56191e-10 2.22167 -0.733487 -0.20892 -1.53584e-14 4.31984e-13 -3.04614e-14 -78.6608 1.81501 15.8286 8.06104 -3.0439 -14.2121 0.0931087 8.75896 -1.24048 -7.16065e-10 1.69351e-09 3.60262e-09 -1.21245e-09 2.90464e-09 6.23075e-09 -7.16078e-10 1.69352e-09 3.60263e-09 -7.73091 5.47488 -0.417314 -7.16063e-10 1.69351e-09 3.60262e-09 -2.90554 0.965183 -0.102902 -7.16068e-10 1.69351e-09 3.60262e-09 -10.2786 0.731801 -0.0259123 -7.16057e-10 1.69351e-09 3.60261e-09 -2.22167 -0.733487 0.20892 -2.03217e-16 0.0 -3.88251e-19 6.46571 11.8357 -3.74388 -0.0468946 16.7931 0.407902 0.528295 6.40109 -21.5452 2.03217e-16 0.0 3.88251e-19 1.2121 -55.984 -2.43537 0.2755 34.3441 -0.279873 4.02613 -10.7462 12.1489
0.835329999999999 78.3884 7.947000000000003 -2.6382 4.6132 12.3999 2.6139 9.71869 8.1032 1.26652 -6.11399 2.31588 3.47909 -6.51921 -2.64411 -9.43895 -6.00443 -7.14028 -0.0 0.0 0.0 -0.0 0.0 0.0 1.28362e-14 3.75304e-13 -8.57259e-14 71.9845 17.6109 11.0539 -16.3062 -8.97473 30.3215 -0.250011 -14.0944 -2.0222 -1.12859e-09 2.08442e-09 -2.72729e-10 -1.95151e-09 3.60357e-09 -4.77596e-10 -1.12858e-09 2.08442e-09 -2.72745e-10 7.73091 5.47488 0.417314 -1.12859e-09 2.08442e-09 -2.72726e-10 2.90554 0.965183 0.102902 -1.12859e-09 2.08442e-09 -2.72731e-10 10.2786 0.731801 0.0259123 -1.1286e-09 2.08442e-09 -2.72723e-10 2.22167 -0.733487 -0.20892 1.26091e-14 3.75305e-13 -8.59744e-14 -78.0134 0.192459 16.2064 7.87837 -2.94836 -13.8786 0.123328 9.96367 -1.41473 -9.86595e-10 2.26008e-09 2.25889e-09 -1.68627e-09 3.88985e-09 3.90828e-09 -9.8661e-10 2.26009e-09 2.25889e-09 -7.73091 5.47488 -0.417314 -9.86594e-10 2.26008e-09 2.25888e-09 -2.90554 0.965183 -0.102902 -9.86599e-10 2.26008e-09 2.25888e-09 -10.2786 0.731801 -0.0259123 -9.86586e-10 2.26008e-09 2.25887e-09 -2.22167 -0.733487 0.20892 -2.03217e-16 0.0 -3.88251e-19 6.0123 12.3734 -3.76483 -0.0440576 16.6715 0.405545 1.25291 8.31902 -20.9176 2.03217e-16 0.0 3.88251e-19 0.964234 -55.8769 -2.30139 0.297415 35.7801 -0.344618 4.15734 -11.3318 12.1322
